{
	"asset":{
		"generator":"Khronos glTF Blender I/O v4.0.44",
		"version":"2.0"
	},
	"extensionsUsed":[
		"KHR_materials_emissive_strength"
	],
	"scene":0,
	"scenes":[
		{
			"name":"Scene",
			"nodes":[
				4
			]
		}
	],
	"nodes":[
		{
			"mesh":0,
			"name":"Atmosphere"
		},
		{
			"mesh":1,
			"name":"Clouds"
		},
		{
			"mesh":2,
			"name":"Lava_clouds"
		},
		{
			"mesh":3,
			"name":"Planet_surface"
		},
		{
			"children":[
				0,
				1,
				2,
				3
			],
			"name":"Planet - dying",
			"translation":[
				-4.036196708679199,
				0,
				-1.704092025756836
			]
		}
	],
	"materials":[
		{
			"alphaMode":"BLEND",
			"name":"Atomosphere",
			"pbrMetallicRoughness":{}
		},
		{
			"alphaMode":"BLEND",
			"name":"Clouds",
			"pbrMetallicRoughness":{}
		},
		{
			"alphaMode":"BLEND",
			"emissiveFactor":[
				1,
				0.15820431039890853,
				0.05133607431476644
			],
			"extensions":{
				"KHR_materials_emissive_strength":{
					"emissiveStrength":1.6000001430511475
				}
			},
			"name":"Lava_clouds",
			"pbrMetallicRoughness":{
				"baseColorFactor":[
					0,
					0,
					0,
					1
				]
			}
		},
		{
			"doubleSided":true,
			"emissiveFactor":[
				1,
				1,
				1
			],
			"emissiveTexture":{
				"index":0
			},
			"name":"Planet_surface",
			"normalTexture":{
				"index":1
			},
			"pbrMetallicRoughness":{
				"baseColorTexture":{
					"index":2
				},
				"metallicFactor":0,
				"metallicRoughnessTexture":{
					"index":3
				}
			}
		}
	],
	"meshes":[
		{
			"name":"Icosphere.007",
			"primitives":[
				{
					"attributes":{
						"POSITION":0,
						"NORMAL":1,
						"TEXCOORD_0":2
					},
					"indices":3,
					"material":0
				}
			]
		},
		{
			"name":"Icosphere.001",
			"primitives":[
				{
					"attributes":{
						"POSITION":4,
						"NORMAL":5,
						"TEXCOORD_0":6
					},
					"indices":3,
					"material":1
				}
			]
		},
		{
			"name":"Icosphere.002",
			"primitives":[
				{
					"attributes":{
						"POSITION":7,
						"NORMAL":8,
						"TEXCOORD_0":9
					},
					"indices":3,
					"material":2
				}
			]
		},
		{
			"name":"Sphere.001",
			"primitives":[
				{
					"attributes":{
						"POSITION":10,
						"NORMAL":11,
						"TEXCOORD_0":12
					},
					"indices":13,
					"material":3
				}
			]
		}
	],
	"textures":[
		{
			"sampler":0,
			"source":0
		},
		{
			"sampler":0,
			"source":1
		},
		{
			"sampler":0,
			"source":2
		},
		{
			"sampler":0,
			"source":3
		}
	],
	"images":[
		{
			"mimeType":"image/jpeg",
			"name":"Planet_Surface_Emission",
			"uri":"Planet_Surface_Emission.jpg"
		},
		{
			"mimeType":"image/png",
			"name":"Planet_Surface_Normal",
			"uri":"Planet_Surface_Normal.png"
		},
		{
			"mimeType":"image/png",
			"name":"Planet_Surface_Diffuse",
			"uri":"Planet_Surface_Diffuse.png"
		},
		{
			"mimeType":"image/png",
			"name":"Planet_Surface_Roughness",
			"uri":"Planet_Surface_Roughness.png"
		}
	],
	"accessors":[
		{
			"bufferView":0,
			"componentType":5126,
			"count":729,
			"max":[
				2.0269925594329834,
				2.0269925594329834,
				2.0269925594329834
			],
			"min":[
				-2.0269927978515625,
				-2.0269930362701416,
				-2.0269927978515625
			],
			"type":"VEC3"
		},
		{
			"bufferView":1,
			"componentType":5126,
			"count":729,
			"type":"VEC3"
		},
		{
			"bufferView":2,
			"componentType":5126,
			"count":729,
			"type":"VEC2"
		},
		{
			"bufferView":3,
			"componentType":5123,
			"count":3840,
			"type":"SCALAR"
		},
		{
			"bufferView":4,
			"componentType":5126,
			"count":729,
			"max":[
				2.004856824874878,
				2.004857063293457,
				2.004856586456299
			],
			"min":[
				-2.004857063293457,
				-2.004856824874878,
				-2.004857063293457
			],
			"type":"VEC3"
		},
		{
			"bufferView":5,
			"componentType":5126,
			"count":729,
			"type":"VEC3"
		},
		{
			"bufferView":6,
			"componentType":5126,
			"count":729,
			"type":"VEC2"
		},
		{
			"bufferView":7,
			"componentType":5126,
			"count":729,
			"max":[
				2.0113377571105957,
				2.011337995529175,
				2.0113377571105957
			],
			"min":[
				-2.011337995529175,
				-2.011337995529175,
				-2.011337995529175
			],
			"type":"VEC3"
		},
		{
			"bufferView":8,
			"componentType":5126,
			"count":729,
			"type":"VEC3"
		},
		{
			"bufferView":9,
			"componentType":5126,
			"count":729,
			"type":"VEC2"
		},
		{
			"bufferView":10,
			"componentType":5126,
			"count":559,
			"max":[
				2.000000476837158,
				1.9999998807907104,
				2.000000476837158
			],
			"min":[
				-1.999999761581421,
				-2,
				-2.000000238418579
			],
			"type":"VEC3"
		},
		{
			"bufferView":11,
			"componentType":5126,
			"count":559,
			"type":"VEC3"
		},
		{
			"bufferView":12,
			"componentType":5126,
			"count":559,
			"type":"VEC2"
		},
		{
			"bufferView":13,
			"componentType":5123,
			"count":2880,
			"type":"SCALAR"
		}
	],
	"bufferViews":[
		{
			"buffer":0,
			"byteLength":8748,
			"byteOffset":0,
			"target":34962
		},
		{
			"buffer":0,
			"byteLength":8748,
			"byteOffset":8748,
			"target":34962
		},
		{
			"buffer":0,
			"byteLength":5832,
			"byteOffset":17496,
			"target":34962
		},
		{
			"buffer":0,
			"byteLength":7680,
			"byteOffset":23328,
			"target":34963
		},
		{
			"buffer":0,
			"byteLength":8748,
			"byteOffset":31008,
			"target":34962
		},
		{
			"buffer":0,
			"byteLength":8748,
			"byteOffset":39756,
			"target":34962
		},
		{
			"buffer":0,
			"byteLength":5832,
			"byteOffset":48504,
			"target":34962
		},
		{
			"buffer":0,
			"byteLength":8748,
			"byteOffset":54336,
			"target":34962
		},
		{
			"buffer":0,
			"byteLength":8748,
			"byteOffset":63084,
			"target":34962
		},
		{
			"buffer":0,
			"byteLength":5832,
			"byteOffset":71832,
			"target":34962
		},
		{
			"buffer":0,
			"byteLength":6708,
			"byteOffset":77664,
			"target":34962
		},
		{
			"buffer":0,
			"byteLength":6708,
			"byteOffset":84372,
			"target":34962
		},
		{
			"buffer":0,
			"byteLength":4472,
			"byteOffset":91080,
			"target":34962
		},
		{
			"buffer":0,
			"byteLength":5760,
			"byteOffset":95552,
			"target":34963
		}
	],
	"samplers":[
		{
			"magFilter":9729,
			"minFilter":9987
		}
	],
	"buffers":[
		{
			"byteLength":101312,
			"uri":"untitled.bin"
		}
	]
}
